<svg xmlns="http://www.w3.org/2000/svg" width="128" height="128" viewBox="0 0 64 64" fill="none">
  <rect x="9" y="14" width="18" height="13" rx="3.5" stroke="#EAF3FF" stroke-width="3"/>
  <rect x="9" y="37" width="18" height="13" rx="3.5" stroke="#EAF3FF" stroke-width="3"/>
  <rect x="37" y="25.5" width="18" height="13" rx="3.5" stroke="#EAF3FF" stroke-width="3"/>
  <path d="M27 20.5h6M27 43.5h6M34 20.5v23" stroke="#7DB8FF" stroke-width="3.5" stroke-linecap="round"/>
  <path d="M34 32h3" stroke="#7DB8FF" stroke-width="3.5" stroke-linecap="round"/>
  <circle cx="34" cy="32" r="5.5" fill="#7DB8FF"/>
  <path d="M34 27v2M34 35v2M29 32h2M37 32h2M30.5 28.5l1.4 1.4M36.1 34.1l1.4 1.4M37.5 28.5l-1.4 1.4M31.9 34.1l-1.4 1.4" stroke="#17345F" stroke-width="1.8" stroke-linecap="round"/>
</svg>